<svg width="28" height="28" viewBox="0 0 28 28" fill="none" xmlns="http://www.w3.org/2000/svg">
<path d="M23.8778 10.1429L24.1648 9.48257C24.6694 8.31442 25.5936 7.37781 26.7548 6.85757L27.6403 6.46207C27.7478 6.41266 27.8388 6.33347 27.9026 6.23391C27.9664 6.13434 28.0003 6.01857 28.0003 5.90032C28.0003 5.78207 27.9664 5.66631 27.9026 5.56674C27.8388 5.46718 27.7478 5.38799 27.6403 5.33857L26.8038 4.96641C25.6134 4.43135 24.6734 3.4601 24.1777 2.25274L23.8825 1.53991C23.8392 1.42949 23.7635 1.33469 23.6655 1.26787C23.5675 1.20105 23.4516 1.16531 23.333 1.16531C23.2144 1.16531 23.0985 1.20105 23.0005 1.26787C22.9025 1.33469 22.8269 1.42949 22.7835 1.53991L22.4883 2.25157C21.9931 3.45916 21.0536 4.43083 19.8633 4.96641L19.0257 5.33974C18.9186 5.3893 18.8279 5.46847 18.7643 5.56791C18.7008 5.66735 18.667 5.7829 18.667 5.90091C18.667 6.01892 18.7008 6.13447 18.7643 6.2339C18.8279 6.33334 18.9186 6.41252 19.0257 6.46207L19.9123 6.85641C21.0734 7.37717 21.9971 8.31419 22.5012 9.48257L22.7882 10.1429C22.9982 10.6259 23.6667 10.6259 23.8778 10.1429ZM23.333 12.8332C24.1147 12.8332 24.8648 12.7049 25.5672 12.4692C25.6333 12.9709 25.6663 13.4811 25.6663 13.9999C25.6663 20.4434 20.4432 25.6666 13.9997 25.6666C7.55617 25.6666 2.33301 20.4434 2.33301 13.9999C2.33301 7.55641 7.55617 2.33324 13.9997 2.33324C15.0567 2.33324 16.0798 2.47324 17.0528 2.73691C16.5264 3.8043 16.2808 4.98829 16.3392 6.17701C16.3977 7.36572 16.7583 8.51991 17.3869 9.53051C18.0155 10.5411 18.8914 11.3747 19.9318 11.9526C20.9723 12.5305 22.1429 12.8336 23.333 12.8332ZM15.1663 12.8332V6.99991L9.33301 15.1666H12.833V20.9999L18.6663 12.8332H15.1663Z" fill="#0E1734"/>
</svg>
