<svg width="24" height="24" viewBox="0 0 24 24" fill="none" xmlns="http://www.w3.org/2000/svg">
<path fill-rule="evenodd" clip-rule="evenodd" d="M15.965 19.5869C14.6949 20.1667 13.2638 20.4927 11.75 20.4927C6.50329 20.4927 2.25 16.5768 2.25 11.7464C2.25 6.91587 6.50329 3 11.75 3C16.9967 3 21.25 6.91587 21.25 11.7464C21.25 13.1712 20.8799 14.5164 20.2235 15.7051L21.0922 19.6627C21.276 20.4999 20.4992 21.2197 19.7163 20.9378L15.965 19.5869ZM7 10.1064C6.12555 10.1064 5.41667 10.8406 5.41667 11.7464V11.8388C5.41667 12.7446 6.12555 13.4788 7 13.4788C7.87445 13.4788 8.58333 12.7446 8.58333 11.8388V11.7464C8.58333 10.8406 7.87445 10.1064 7 10.1064ZM11.7495 10.1064C10.8751 10.1064 10.1662 10.8406 10.1662 11.7464V11.8388C10.1662 12.7446 10.8751 13.4788 11.7495 13.4788C12.624 13.4788 13.3329 12.7446 13.3329 11.8388V11.7464C13.3329 10.8406 12.624 10.1064 11.7495 10.1064ZM14.9158 11.7464C14.9158 10.8406 15.6246 10.1064 16.4991 10.1064C17.3736 10.1064 18.0824 10.8406 18.0824 11.7464V11.8388C18.0824 12.7446 17.3736 13.4788 16.4991 13.4788C15.6246 13.4788 14.9158 12.7446 14.9158 11.8388V11.7464Z" fill="#9C9B9E"/>
</svg>
