<svg width="18" height="18" viewBox="0 0 18 18" fill="none" xmlns="http://www.w3.org/2000/svg">
<path d="M14.9498 5.14421C15.0152 5.07491 15.094 5.0197 15.1816 4.98196C15.2691 4.94423 15.3633 4.92477 15.4586 4.92477C15.5539 4.92477 15.6482 4.94423 15.7357 4.98196C15.8232 5.0197 15.9021 5.07491 15.9675 5.14421C16.2488 5.43671 16.2488 5.91071 15.9675 6.20321L7.32001 15.21C6.9931 15.5564 6.59885 15.8324 6.16146 16.0211C5.72406 16.2097 5.25273 16.3071 4.77639 16.3071C4.30004 16.3071 3.82872 16.2097 3.39132 16.0211C2.95392 15.8324 2.55968 15.5564 2.23276 15.21C0.828012 13.7475 0.828012 11.3752 2.23276 9.91196L9.86251 1.96496C10.0588 1.75727 10.2954 1.59183 10.5578 1.47876C10.8203 1.36569 11.103 1.30737 11.3888 1.30737C11.6745 1.30737 11.9573 1.36569 12.2197 1.47876C12.4821 1.59183 12.7187 1.75727 12.915 1.96496C13.758 2.84246 13.758 4.26596 12.915 5.14421L6.30151 12.03C6.23611 12.0991 6.15728 12.1542 6.06985 12.1919C5.98241 12.2296 5.88821 12.249 5.79301 12.249C5.69781 12.249 5.60361 12.2296 5.51618 12.1919C5.42874 12.1542 5.34991 12.0991 5.28451 12.03C5.14961 11.8867 5.07449 11.6973 5.07449 11.5005C5.07449 11.3036 5.14961 11.1143 5.28451 10.971L11.898 4.08371C12.0331 3.94037 12.1084 3.75082 12.1084 3.55383C12.1084 3.35685 12.0331 3.1673 11.898 3.02396C11.8326 2.95466 11.7537 2.89945 11.6662 2.86171C11.5787 2.82398 11.4844 2.80452 11.3891 2.80452C11.2938 2.80452 11.1996 2.82398 11.1121 2.86171C11.0245 2.89945 10.9457 2.95466 10.8803 3.02396L3.24901 10.9725C2.40676 11.85 2.40676 13.2735 3.24901 14.151C3.44529 14.3586 3.68189 14.5241 3.94432 14.6372C4.20675 14.7502 4.48951 14.8085 4.77526 14.8085C5.06102 14.8085 5.34377 14.7502 5.6062 14.6372C5.86864 14.5241 6.10524 14.3586 6.30151 14.151L14.9498 5.14421Z" fill="black" fill-opacity="0.6"/>
</svg>
