<svg width="24" height="24" viewBox="0 0 24 24" fill="none" xmlns="http://www.w3.org/2000/svg">
<path d="M15.6774 14.8429C16.0048 14.9521 16.3588 14.7751 16.4679 14.4476C16.5771 14.1202 16.4001 13.7662 16.0726 13.6571L15.875 14.25L15.6774 14.8429ZM12.5 13.125H11.875C11.875 13.394 12.0471 13.6329 12.3024 13.7179L12.5 13.125ZM13.125 8.42087C13.125 8.07569 12.8452 7.79587 12.5 7.79587C12.1548 7.79587 11.875 8.07569 11.875 8.42087H12.5H13.125ZM15.875 14.25L16.0726 13.6571L12.6976 12.5321L12.5 13.125L12.3024 13.7179L15.6774 14.8429L15.875 14.25ZM12.5 13.125H13.125V8.42087H12.5H11.875V13.125H12.5ZM21.5 12H20.875C20.875 16.6254 17.1254 20.375 12.5 20.375V21V21.625C17.8157 21.625 22.125 17.3157 22.125 12H21.5ZM12.5 21V20.375C7.87462 20.375 4.125 16.6254 4.125 12H3.5H2.875C2.875 17.3157 7.18426 21.625 12.5 21.625V21ZM3.5 12H4.125C4.125 7.37462 7.87462 3.625 12.5 3.625V3V2.375C7.18426 2.375 2.875 6.68426 2.875 12H3.5ZM12.5 3V3.625C17.1254 3.625 20.875 7.37462 20.875 12H21.5H22.125C22.125 6.68426 17.8157 2.375 12.5 2.375V3Z" fill="#666666"/>
</svg>
