<svg width="28" height="28" viewBox="0 0 28 28" fill="none" xmlns="http://www.w3.org/2000/svg">
<rect width="28" height="28" rx="4" fill="#F8F8F8"/>
<rect x="0.5" y="0.5" width="27" height="27" rx="3.5" stroke="url(#paint0_linear_832_23169)" stroke-opacity="0.4"/>
<path d="M19.6448 11.7959L19.8088 11.4186C20.0972 10.7511 20.6252 10.2159 21.2888 9.91861L21.7948 9.69261C21.8562 9.66438 21.9082 9.61913 21.9447 9.56223C21.9811 9.50534 22.0005 9.43918 22.0005 9.37161C22.0005 9.30404 21.9811 9.23789 21.9447 9.18099C21.9082 9.1241 21.8562 9.07885 21.7948 9.05061L21.3168 8.83795C20.6366 8.5322 20.0995 7.9772 19.8162 7.28728L19.6475 6.87995C19.6227 6.81685 19.5795 6.76268 19.5235 6.7245C19.4675 6.68632 19.4013 6.66589 19.3335 6.66589C19.2657 6.66589 19.1995 6.68632 19.1435 6.7245C19.0875 6.76268 19.0443 6.81685 19.0195 6.87995L18.8508 7.28661C18.5678 7.97667 18.031 8.5319 17.3508 8.83795L16.8722 9.05128C16.811 9.0796 16.7591 9.12484 16.7228 9.18166C16.6865 9.23848 16.6672 9.30451 16.6672 9.37195C16.6672 9.43938 16.6865 9.50541 16.7228 9.56223C16.7591 9.61905 16.811 9.66429 16.8722 9.69261L17.3788 9.91795C18.0423 10.2155 18.5701 10.751 18.8582 11.4186L19.0222 11.7959C19.1422 12.0719 19.5242 12.0719 19.6448 11.7959ZM19.3335 13.3333C19.7802 13.3333 20.2088 13.2599 20.6102 13.1253C20.6479 13.4119 20.6668 13.7035 20.6668 13.9999C20.6668 17.6819 17.6822 20.6666 14.0002 20.6666C10.3182 20.6666 7.3335 17.6819 7.3335 13.9999C7.3335 10.3179 10.3182 7.33328 14.0002 7.33328C14.6042 7.33328 15.1888 7.41328 15.7448 7.56395C15.444 8.17388 15.3037 8.85045 15.3371 9.52972C15.3705 10.209 15.5765 10.8685 15.9357 11.446C16.2949 12.0235 16.7954 12.4999 17.39 12.8301C17.9845 13.1603 18.6534 13.3335 19.3335 13.3333ZM14.6668 13.3333V9.99995L11.3335 14.6666H13.3335V17.9999L16.6668 13.3333H14.6668Z" fill="url(#paint1_linear_832_23169)"/>
<defs>
<linearGradient id="paint0_linear_832_23169" x1="1.75" y1="3.93329e-07" x2="28" y2="25.6667" gradientUnits="userSpaceOnUse">
<stop stop-color="#111A38"/>
<stop offset="0.495192" stop-color="#475177"/>
<stop offset="1" stop-color="#121A38"/>
</linearGradient>
<linearGradient id="paint1_linear_832_23169" x1="6.72237" y1="7.24926" x2="22.2212" y2="22.2603" gradientUnits="userSpaceOnUse">
<stop stop-color="#0E1634"/>
<stop offset="0.480769" stop-color="#475278"/>
<stop offset="0.978177" stop-color="#121A39"/>
</linearGradient>
</defs>
</svg>
