<svg width="24" height="24" viewBox="0 0 24 24" fill="none" xmlns="http://www.w3.org/2000/svg">
<path d="M9.33366 10.6667C11.1746 10.6667 12.667 9.17428 12.667 7.33333C12.667 5.49238 11.1746 4 9.33366 4C7.49271 4 6.00033 5.49238 6.00033 7.33333C6.00033 9.17428 7.49271 10.6667 9.33366 10.6667Z" fill="#0E1734"/>
<path d="M18.667 8.66667C18.667 9.77124 17.7716 10.6667 16.667 10.6667C15.5624 10.6667 14.667 9.77124 14.667 8.66667C14.667 7.5621 15.5624 6.66667 16.667 6.66667C17.7716 6.66667 18.667 7.5621 18.667 8.66667Z" fill="#0E1734"/>
<path d="M17.5004 17.7383C17.3673 18.1244 17.6462 18.5722 18.049 18.5046C20.3233 18.1226 21.3337 16.8295 21.3337 15.293C21.3337 13.4561 19.1999 11.9669 16.5677 11.9669C16.1808 11.9669 15.8047 11.9991 15.4445 12.0598C15.344 12.0768 15.3216 12.2091 15.4073 12.2642C16.6576 13.0669 17.7592 14.3884 17.7592 16.153C17.7592 16.7103 17.6713 17.2426 17.5004 17.7383Z" fill="#0E1734"/>
<path d="M9.45487 20.303C14.1858 20.303 16.2428 18.4434 16.2428 16.1494C16.2428 13.8554 13.2037 11.9958 9.45487 11.9958C5.70603 11.9958 2.66699 13.8554 2.66699 16.1494C2.66699 18.4434 4.72393 20.303 9.45487 20.303Z" fill="#0E1734"/>
</svg>
