<svg width="18" height="18" viewBox="0 0 24 24" fill="none" xmlns="http://www.w3.org/2000/svg">
<rect width="24" height="24" rx="4" fill="#F8F8F8"/>
<rect x="0.5" y="0.5" width="23" height="23" rx="3.5" stroke="url(#paint0_linear_837_24310)" stroke-opacity="0.4"/>
<path d="M17.6448 9.79607L17.8088 9.41874C18.0972 8.75122 18.6252 8.21602 19.2888 7.91874L19.7948 7.69274C19.8562 7.6645 19.9082 7.61925 19.9447 7.56236C19.9811 7.50546 20.0005 7.43931 20.0005 7.37174C20.0005 7.30417 19.9811 7.23801 19.9447 7.18112C19.9082 7.12422 19.8562 7.07897 19.7948 7.05074L19.3168 6.83807C18.6366 6.53232 18.0995 5.97732 17.8162 5.2874L17.6475 4.88007C17.6227 4.81697 17.5795 4.7628 17.5235 4.72462C17.4675 4.68644 17.4013 4.66602 17.3335 4.66602C17.2657 4.66602 17.1995 4.68644 17.1435 4.72462C17.0875 4.7628 17.0443 4.81697 17.0195 4.88007L16.8508 5.28674C16.5678 5.97679 16.031 6.53202 15.3508 6.83807L14.8722 7.0514C14.811 7.07972 14.7591 7.12496 14.7228 7.18179C14.6865 7.23861 14.6672 7.30463 14.6672 7.37207C14.6672 7.43951 14.6865 7.50553 14.7228 7.56235C14.7591 7.61917 14.811 7.66442 14.8722 7.69274L15.3788 7.91807C16.0423 8.21565 16.5701 8.75109 16.8582 9.41874L17.0222 9.79607C17.1422 10.0721 17.5242 10.0721 17.6448 9.79607ZM17.3335 11.3334C17.7802 11.3334 18.2088 11.2601 18.6102 11.1254C18.6479 11.4121 18.6668 11.7036 18.6668 12.0001C18.6668 15.6821 15.6822 18.6667 12.0002 18.6667C8.31816 18.6667 5.3335 15.6821 5.3335 12.0001C5.3335 8.31807 8.31816 5.3334 12.0002 5.3334C12.6042 5.3334 13.1888 5.4134 13.7448 5.56407C13.444 6.17401 13.3037 6.85057 13.3371 7.52984C13.3705 8.20911 13.5765 8.86864 13.9357 9.44613C14.2949 10.0236 14.7954 10.5 15.39 10.8302C15.9845 11.1604 16.6534 11.3336 17.3335 11.3334ZM12.6668 11.3334V8.00007L9.3335 12.6667H11.3335V16.0001L14.6668 11.3334H12.6668Z" fill="url(#paint1_linear_837_24310)"/>
<defs>
<linearGradient id="paint0_linear_837_24310" x1="1.5" y1="3.37139e-07" x2="24" y2="22" gradientUnits="userSpaceOnUse">
<stop stop-color="#111A38"/>
<stop offset="0.495192" stop-color="#475177"/>
<stop offset="1" stop-color="#121A38"/>
</linearGradient>
<linearGradient id="paint1_linear_837_24310" x1="4.72237" y1="5.24938" x2="20.2212" y2="20.2604" gradientUnits="userSpaceOnUse">
<stop stop-color="#0E1634"/>
<stop offset="0.480769" stop-color="#475278"/>
<stop offset="0.978177" stop-color="#121A39"/>
</linearGradient>
</defs>
</svg>
