<svg width="24" height="24" viewBox="0 0 24 24" fill="none" xmlns="http://www.w3.org/2000/svg">
<path d="M2.3999 4.53324C2.3999 3.35503 3.35503 2.3999 4.53324 2.3999H8.7999C9.97811 2.3999 10.9332 3.35503 10.9332 4.53324V8.7999C10.9332 9.97811 9.97811 10.9332 8.7999 10.9332H4.53324C3.35503 10.9332 2.3999 9.97811 2.3999 8.7999V4.53324Z" fill="#9C9B9E"/>
<path d="M2.3999 15.1999C2.3999 14.0217 3.35503 13.0666 4.53324 13.0666H8.7999C9.97811 13.0666 10.9332 14.0217 10.9332 15.1999V19.4666C10.9332 20.6448 9.97811 21.5999 8.7999 21.5999H4.53324C3.35503 21.5999 2.3999 20.6448 2.3999 19.4666V15.1999Z" fill="#9C9B9E"/>
<path d="M13.0666 4.53324C13.0666 3.35503 14.0217 2.3999 15.1999 2.3999H19.4666C20.6448 2.3999 21.5999 3.35503 21.5999 4.53324V8.7999C21.5999 9.97811 20.6448 10.9332 19.4666 10.9332H15.1999C14.0217 10.9332 13.0666 9.97811 13.0666 8.7999V4.53324Z" fill="#9C9B9E"/>
<path d="M13.0666 15.1999C13.0666 14.0217 14.0217 13.0666 15.1999 13.0666H19.4666C20.6448 13.0666 21.5999 14.0217 21.5999 15.1999V19.4666C21.5999 20.6448 20.6448 21.5999 19.4666 21.5999H15.1999C14.0217 21.5999 13.0666 20.6448 13.0666 19.4666V15.1999Z" fill="#9C9B9E"/>
</svg>
