<svg width="24" height="24" viewBox="0 0 24 24" fill="none" xmlns="http://www.w3.org/2000/svg">
<path fill-rule="evenodd" clip-rule="evenodd" d="M5 10V16C5 18.2091 6.79086 20 9 20H15C17.2091 20 19 18.2091 19 16V10C19 7.79086 17.2091 6 15 6H9C6.79086 6 5 7.79086 5 10Z" stroke="#485467" stroke-linecap="round" stroke-linejoin="round"/>
<path d="M14.5 7C14.5 7.27614 14.7239 7.5 15 7.5C15.2761 7.5 15.5 7.27614 15.5 7H15H14.5ZM15.5 4C15.5 3.72386 15.2761 3.5 15 3.5C14.7239 3.5 14.5 3.72386 14.5 4H15H15.5ZM8.5 7C8.5 7.27614 8.72386 7.5 9 7.5C9.27614 7.5 9.5 7.27614 9.5 7H9H8.5ZM9.5 4C9.5 3.72386 9.27614 3.5 9 3.5C8.72386 3.5 8.5 3.72386 8.5 4H9H9.5ZM8.5 11.286C8.5 11.5621 8.72386 11.786 9 11.786C9.27614 11.786 9.5 11.5621 9.5 11.286H9H8.5ZM12 11.286L12.4991 11.3157C12.4997 11.3058 12.5 11.2959 12.5 11.286H12ZM11.3637 12.5674L11.6891 12.9471L11.6891 12.9471L11.3637 12.5674ZM10 13L9.95297 12.5022C9.69619 12.5265 9.5 12.7421 9.5 13C9.5 13.2579 9.69619 13.4735 9.95297 13.4978L10 13ZM11.3637 13.4326L11.6891 13.0529L11.3637 13.4326ZM12 14.714H12.5C12.5 14.7041 12.4997 14.6942 12.4991 14.6843L12 14.714ZM9.5 14.714C9.5 14.4379 9.27614 14.214 9 14.214C8.72386 14.214 8.5 14.4379 8.5 14.714H9H9.5ZM13.6746 10.4773C13.465 10.657 13.4407 10.9727 13.6203 11.1824C13.8 11.392 14.1157 11.4163 14.3254 11.2367L14 10.857L13.6746 10.4773ZM15 10H15.5C15.5 9.80474 15.3863 9.62735 15.2089 9.54575C15.0316 9.46416 14.8229 9.49329 14.6746 9.62035L15 10ZM14.5 16C14.5 16.2761 14.7239 16.5 15 16.5C15.2761 16.5 15.5 16.2761 15.5 16H15H14.5ZM15 7H15.5V4H15H14.5V7H15ZM9 7H9.5V4H9H8.5V7H9ZM9 11.286H9.5C9.5 11.0225 9.60738 10.8448 9.77174 10.7196C9.95001 10.5838 10.2126 10.5005 10.5 10.5005C10.7874 10.5005 11.05 10.5838 11.2283 10.7196C11.3926 10.8448 11.5 11.0225 11.5 11.286H12H12.5C12.5 10.6925 12.2324 10.2274 11.8342 9.92414C11.45 9.63144 10.9626 9.5005 10.5 9.5005C10.0374 9.5005 9.54999 9.63144 9.16576 9.92414C8.76762 10.2274 8.5 10.6925 8.5 11.286H9ZM12 11.286L11.5009 11.2563C11.4794 11.6166 11.3125 11.9528 11.0384 12.1878L11.3637 12.5674L11.6891 12.9471C12.1692 12.5356 12.4615 11.9469 12.4991 11.3157L12 11.286ZM11.3637 12.5674L11.0384 12.1878C10.7642 12.4227 10.4064 12.5362 10.047 12.5022L10 13L9.95297 13.4978C10.5824 13.5573 11.209 13.3585 11.6891 12.9471L11.3637 12.5674ZM10 13L10.047 13.4978C10.4064 13.4638 10.7642 13.5773 11.0384 13.8122L11.3637 13.4326L11.6891 13.0529C11.209 12.6415 10.5824 12.4427 9.95297 12.5022L10 13ZM11.3637 13.4326L11.0384 13.8122C11.3125 14.0472 11.4794 14.3834 11.5009 14.7437L12 14.714L12.4991 14.6843C12.4615 14.0531 12.1692 13.4644 11.6891 13.0529L11.3637 13.4326ZM12 14.714H11.5C11.5 14.9775 11.3926 15.1552 11.2283 15.2804C11.05 15.4162 10.7874 15.4995 10.5 15.4995C10.2126 15.4995 9.95001 15.4162 9.77174 15.2804C9.60738 15.1552 9.5 14.9775 9.5 14.714H9H8.5C8.5 15.3075 8.76762 15.7726 9.16576 16.0759C9.54999 16.3686 10.0374 16.4995 10.5 16.4995C10.9626 16.4995 11.45 16.3686 11.8342 16.0759C12.2324 15.7726 12.5 15.3075 12.5 14.714H12ZM14 10.857L14.3254 11.2367L15.3254 10.3797L15 10L14.6746 9.62035L13.6746 10.4773L14 10.857ZM15 10H14.5V16H15H15.5V10H15Z" fill="#485467"/>
</svg>
