<svg width="24" height="24" viewBox="0 0 24 24" fill="none" xmlns="http://www.w3.org/2000/svg">
<path d="M2.39997 5.0001C2.39997 4.2269 3.01398 3.6001 3.7714 3.6001H9.25712C10.0145 3.6001 10.6285 4.2269 10.6285 5.0001V5.4001C10.6285 5.95238 10.1808 6.4001 9.62855 6.4001H3.39997C2.84769 6.4001 2.39997 5.95238 2.39997 5.4001V5.0001Z" fill="#0E1734"/>
<path d="M2.40031 9.80002C2.40036 8.69548 3.29578 7.8001 4.40031 7.8001H19.6C20.7045 7.8001 21.6 8.69553 21.6 9.8001V18.4001C21.6 19.5047 20.7045 20.4001 19.6 20.4001H4.39998C3.29538 20.4001 2.39994 19.5046 2.39998 18.4L2.40031 9.80002Z" fill="#0E1734"/>
</svg>
