<svg width="20" height="20" viewBox="0 0 20 20" fill="none" xmlns="http://www.w3.org/2000/svg">
<path d="M9.05566 2.16811C8.81666 2.00911 8.52016 1.96032 8.24316 2.03432C7.96631 2.10735 7.73445 2.29602 7.60547 2.55288C7.12247 3.51988 6.76144 4.10715 6.39844 4.58315C6.0305 5.06507 5.64263 5.4591 5.05078 6.04995C3.68478 7.41695 3 9.21014 3 11.0001C3.00004 12.7901 3.68482 14.5834 5.05078 15.9503C7.78474 18.6829 12.2163 18.683 14.9502 15.9503C16.3162 14.5834 17 12.7901 17 11.0001C16.9083 8.61604 15.4014 7.13458 14.6289 6.52846C14.442 6.3821 14.1023 6.51663 13.9795 6.71987C13.9025 6.84727 13.7956 6.99983 13.6484 7.17788C13.2191 7.69719 12.6024 8.01429 12.3574 8.05288C12.3035 8.0611 12.2825 7.94147 12.1592 7.63686C11.3237 5.57336 11.3153 5.82328 10.9814 5.01967C10.8144 4.61667 10.091 3.37899 9.87695 3.04799C9.66902 2.72613 9.40147 2.39906 9.05566 2.16811ZM9.58789 8.631C10.4479 9.4006 11.0143 10.4447 11.1914 11.5851C11.8439 11.4268 12.4454 11.1386 12.9688 10.7511C13.1097 11.1806 13.1564 11.6361 13.1045 12.0851C13.0526 12.5341 12.9032 12.9667 12.668 13.3527C12.4327 13.7385 12.1164 14.0686 11.7412 14.3205C11.3659 14.5723 10.9404 14.7401 10.4941 14.8117C10.0479 14.8831 9.59137 14.8565 9.15625 14.7345C8.7211 14.6125 8.31766 14.3977 7.97363 14.1046C7.62955 13.8115 7.35273 13.4475 7.16309 13.0373C6.97344 12.6269 6.87531 12.1797 6.875 11.7277C6.87515 10.9705 7.15059 10.2387 7.64941 9.66909C8.14831 9.0996 8.83739 8.73094 9.58789 8.631Z" fill="#777878"/>
</svg>
