<svg width="32" height="32" viewBox="0 0 32 32" fill="none" xmlns="http://www.w3.org/2000/svg">
<rect width="32" height="32" rx="8" fill="url(#paint0_linear_882_22943)"/>
<g clip-path="url(#clip0_882_22943)">
<path d="M22.3502 13.5206L22.5347 13.0961C22.8591 12.3451 23.4532 11.743 24.1998 11.4086L24.769 11.1543C24.8381 11.1226 24.8966 11.0717 24.9376 11.0076C24.9786 10.9436 25.0004 10.8692 25.0004 10.7932C25.0004 10.7172 24.9786 10.6428 24.9376 10.5788C24.8966 10.5148 24.8381 10.4638 24.769 10.4321L24.2313 10.1928C23.4659 9.84886 22.8617 9.22449 22.543 8.44833L22.3533 7.99008C22.3254 7.91909 22.2768 7.85815 22.2138 7.8152C22.1508 7.77224 22.0763 7.74927 22 7.74927C21.9237 7.74927 21.8492 7.77224 21.7862 7.8152C21.7232 7.85815 21.6746 7.91909 21.6467 7.99008L21.457 8.44758C21.1386 9.22389 20.5347 9.84853 19.7695 10.1928L19.231 10.4328C19.1621 10.4647 19.1039 10.5156 19.063 10.5795C19.0221 10.6434 19.0004 10.7177 19.0004 10.7936C19.0004 10.8694 19.0221 10.9437 19.063 11.0076C19.1039 11.0716 19.1621 11.1225 19.231 11.1543L19.801 11.4078C20.5474 11.7426 21.1412 12.345 21.4653 13.0961L21.6498 13.5206C21.7848 13.8311 22.2145 13.8311 22.3502 13.5206ZM22 15.2501C22.5025 15.2501 22.9848 15.1676 23.4363 15.0161C23.4788 15.3386 23.5 15.6666 23.5 16.0001C23.5 20.1423 20.1423 23.5001 16 23.5001C11.8578 23.5001 8.5 20.1423 8.5 16.0001C8.5 11.8578 11.8578 8.50008 16 8.50008C16.6795 8.50008 17.3372 8.59008 17.9627 8.75958C17.6243 9.44576 17.4664 10.2069 17.504 10.9711C17.5416 11.7352 17.7734 12.4772 18.1775 13.1269C18.5816 13.7766 19.1447 14.3125 19.8135 14.684C20.4824 15.0555 21.2349 15.2503 22 15.2501ZM16.75 15.2501V11.5001L13 16.7501H15.25V20.5001L19 15.2501H16.75Z" fill="white"/>
</g>
<defs>
<linearGradient id="paint0_linear_882_22943" x1="-1.33333" y1="1.33333" x2="34" y2="34" gradientUnits="userSpaceOnUse">
<stop stop-color="#0E1634"/>
<stop offset="0.480769" stop-color="#475278"/>
<stop offset="0.978177" stop-color="#121A39"/>
</linearGradient>
<clipPath id="clip0_882_22943">
<rect width="18" height="18" fill="white" transform="translate(7 7)"/>
</clipPath>
</defs>
</svg>
