<svg width="24" height="24" viewBox="0 0 24 24" fill="none" xmlns="http://www.w3.org/2000/svg">
<path d="M12 4.5C11.7239 4.49999 11.5 4.72385 11.5 4.99999C11.5 5.27613 11.7238 5.49999 12 5.5L12 5L12 4.5ZM13.913 5.376L14.1024 4.91326L14.1022 4.91319L13.913 5.376ZM16.157 7.2L15.7427 7.47994L15.743 7.4804L16.157 7.2ZM17 9.94H17.5L17.5 9.9392L17 9.94ZM15.535 13.433L15.1314 13.1378C15.1253 13.1462 15.1195 13.1547 15.114 13.1633L15.535 13.433ZM14.083 15.7L13.6619 15.4303L13.6602 15.4331L14.083 15.7ZM12 19L11.5774 19.2673C11.6691 19.4122 11.8287 19.5001 12.0002 19.5C12.1718 19.4999 12.3313 19.4119 12.4228 19.2669L12 19ZM9.917 15.707L10.3396 15.4397L10.3383 15.4377L9.917 15.707ZM8.465 13.436L8.88626 13.1667C8.88073 13.158 8.87493 13.1495 8.86888 13.1412L8.465 13.436ZM7 9.943L6.5 9.9425V9.943H7ZM7.843 7.2L8.25698 7.48039L8.25701 7.48036L7.843 7.2ZM10.087 5.379L10.2761 5.84186L10.277 5.84151L10.087 5.379ZM12.0007 5.5C12.2769 5.49959 12.5004 5.27541 12.5 4.99926C12.4996 4.72312 12.2754 4.49959 11.9993 4.5L12 5L12.0007 5.5ZM12 11.087C11.7239 11.087 11.5 11.3109 11.5 11.587C11.5 11.8631 11.7239 12.087 12 12.087V11.587V11.087ZM12 7.793C11.7239 7.793 11.5 8.01686 11.5 8.293C11.5 8.56914 11.7239 8.793 12 8.793V8.293V7.793ZM12.0123 12.0928C12.2884 12.086 12.5067 11.8567 12.4998 11.5807C12.493 11.3046 12.2637 11.0863 11.9877 11.0932L12 11.593L12.0123 12.0928ZM10.5399 10.7817L10.9708 10.5281L10.5399 10.7817ZM10.5399 9.11131L10.1089 8.85776L10.5399 9.11131ZM11.9877 8.79985C12.2637 8.80665 12.493 8.58838 12.4998 8.31232C12.5067 8.03626 12.2884 7.80696 12.0123 7.80015L12 8.3L11.9877 8.79985ZM12 5L12 5.5C12.5911 5.50001 13.1766 5.61509 13.7238 5.83881L13.913 5.376L14.1022 4.91319C13.4349 4.64036 12.7209 4.50002 12 4.5L12 5ZM13.913 5.376L13.7236 5.83874C14.5439 6.17448 15.2465 6.74554 15.7427 7.47994L16.157 7.2L16.5713 6.92006C15.9645 6.02205 15.1054 5.32378 14.1024 4.91326L13.913 5.376ZM16.157 7.2L15.743 7.4804C16.235 8.20673 16.4986 9.06354 16.5 9.9408L17 9.94L17.5 9.9392C17.4983 8.86256 17.1747 7.81102 16.571 6.9196L16.157 7.2ZM17 9.94H16.5C16.5 10.5329 16.4074 10.9778 16.2034 11.4376C15.9921 11.9142 15.655 12.4219 15.1314 13.1378L15.535 13.433L15.9386 13.7282C16.463 13.0111 16.8584 12.4273 17.1176 11.8431C17.3841 11.2422 17.5 10.6571 17.5 9.94H17ZM15.535 13.433L15.114 13.1633L13.662 15.4303L14.083 15.7L14.504 15.9697L15.956 13.7027L15.535 13.433ZM14.083 15.7L13.6602 15.4331L11.5772 18.7331L12 19L12.4228 19.2669L14.5058 15.9669L14.083 15.7ZM12 19L12.4226 18.7327L10.3396 15.4397L9.917 15.707L9.49444 15.9743L11.5774 19.2673L12 19ZM9.917 15.707L10.3383 15.4377L8.88626 13.1667L8.465 13.436L8.04374 13.7053L9.49574 15.9763L9.917 15.707ZM8.465 13.436L8.86888 13.1412C8.34509 12.4235 8.00793 11.9157 7.7965 11.4394C7.59257 10.98 7.5 10.5358 7.5 9.943H7H6.5C6.5 10.6602 6.61593 11.2445 6.8825 11.8451C7.14157 12.4288 7.53691 13.0125 8.06112 13.7308L8.465 13.436ZM7 9.943L7.5 9.9435C7.50087 9.06532 7.76451 8.20749 8.25698 7.48039L7.843 7.2L7.42902 6.91961C6.82462 7.81195 6.50107 8.86474 6.5 9.9425L7 9.943ZM7.843 7.2L8.25701 7.48036C8.75365 6.74695 9.45617 6.17686 10.2761 5.84186L10.087 5.379L9.89789 4.91614C8.89529 5.32578 8.03628 6.02286 7.42899 6.91964L7.843 7.2ZM10.087 5.379L10.277 5.84151C10.8239 5.61687 11.4094 5.50087 12.0007 5.5L12 5L11.9993 4.5C11.2781 4.50106 10.5641 4.64252 9.89705 4.91649L10.087 5.379ZM12 11.587V12.087C12.767 12.087 13.4758 11.6778 13.8594 11.0135L13.4263 10.7635L12.9933 10.5135C12.7884 10.8684 12.4098 11.087 12 11.087V11.587ZM13.4263 10.7635L13.8594 11.0135C14.2429 10.3492 14.2429 9.53078 13.8594 8.8665L13.4263 9.1165L12.9933 9.3665C13.1982 9.72138 13.1982 10.1586 12.9933 10.5135L13.4263 10.7635ZM13.4263 9.1165L13.8594 8.8665C13.4758 8.20222 12.767 7.793 12 7.793V8.293V8.793C12.4098 8.793 12.7884 9.01162 12.9933 9.3665L13.4263 9.1165ZM12 11.593L11.9877 11.0932C11.5713 11.1034 11.182 10.8871 10.9708 10.5281L10.5399 10.7817L10.1089 11.0352C10.5043 11.7072 11.2329 12.1121 12.0123 12.0928L12 11.593ZM10.5399 10.7817L10.9708 10.5281C10.7596 10.1691 10.7596 9.72386 10.9708 9.36486L10.5399 9.11131L10.1089 8.85776C9.71358 9.52975 9.71358 10.3633 10.1089 11.0352L10.5399 10.7817ZM10.5399 9.11131L10.9708 9.36486C11.1821 9.00586 11.5713 8.78959 11.9877 8.79985L12 8.3L12.0123 7.80015C11.2329 7.78094 10.5043 8.18578 10.1089 8.85776L10.5399 9.11131Z" fill="#485467"/>
</svg>
