<svg width="24" height="24" viewBox="0 0 24 24" fill="none" xmlns="http://www.w3.org/2000/svg">
<path fill-rule="evenodd" clip-rule="evenodd" d="M7.6 2.30005H16C17.9882 2.30005 19.6 3.91182 19.6 5.90005V18.3013C19.6 20.0687 18.1676 21.5 16.4003 21.5H7.6C5.61177 21.5 4 19.8883 4 17.9V5.90005C4 3.91182 5.61178 2.30005 7.6 2.30005ZM8.40039 6.20005C7.84811 6.20005 7.40039 6.64777 7.40039 7.20005C7.40039 7.75234 7.84811 8.20005 8.40039 8.20005H15.6004C16.1527 8.20005 16.6004 7.75234 16.6004 7.20005C16.6004 6.64777 16.1527 6.20005 15.6004 6.20005H8.40039ZM8.40039 9.80005C7.84811 9.80005 7.40039 10.2478 7.40039 10.8001C7.40039 11.3523 7.84811 11.8001 8.40039 11.8001H15.6004C16.1527 11.8001 16.6004 11.3523 16.6004 10.8001C16.6004 10.2478 16.1527 9.80005 15.6004 9.80005H8.40039ZM8.40039 13.4C7.84811 13.4 7.40039 13.8478 7.40039 14.4C7.40039 14.9523 7.84811 15.4 8.40039 15.4H12.0004C12.5527 15.4 13.0004 14.9523 13.0004 14.4C13.0004 13.8478 12.5527 13.4 12.0004 13.4H8.40039Z" fill="#9C9B9E"/>
</svg>
