<svg width="24" height="24" viewBox="0 0 24 24" fill="none" xmlns="http://www.w3.org/2000/svg">
<path fill-rule="evenodd" clip-rule="evenodd" d="M14.75 7.75C14.75 9.26878 13.5188 10.5 12 10.5C10.4812 10.5 9.25 9.26878 9.25 7.75C9.25 6.23122 10.4812 5 12 5C13.5188 5 14.75 6.23122 14.75 7.75Z" fill="white" stroke="#485467" stroke-linecap="round" stroke-linejoin="round"/>
<path fill-rule="evenodd" clip-rule="evenodd" d="M6.5 15.7561C6.55389 17.5723 8.06871 19.0017 9.885 18.9501H14.115C15.9313 19.0017 17.4461 17.5723 17.5 15.7561M17.5 15.6111C17.4461 13.7949 15.9313 12.3656 14.115 12.4171H9.885C8.06871 12.3656 6.55389 13.7949 6.5 15.6111" fill="white"/>
<path d="M6.99978 15.7413C6.99159 15.4653 6.76119 15.2482 6.48517 15.2563C6.20915 15.2645 5.99203 15.4949 6.00022 15.771L6.5 15.7561L6.99978 15.7413ZM9.885 18.9501V18.4501C9.88027 18.4501 9.87554 18.4502 9.87081 18.4503L9.885 18.9501ZM14.115 18.9501L14.1292 18.4503C14.1245 18.4502 14.1197 18.4501 14.115 18.4501V18.9501ZM17.9998 15.771C18.008 15.4949 17.7909 15.2645 17.5148 15.2563C17.2388 15.2482 17.0084 15.4653 17.0002 15.7413L17.5 15.7561L17.9998 15.771ZM17.0002 15.626C17.0084 15.902 17.2388 16.1191 17.5148 16.1109C17.7909 16.1027 18.008 15.8723 17.9998 15.5963L17.5 15.6111L17.0002 15.626ZM14.115 12.4171V12.9171C14.1197 12.9171 14.1245 12.9171 14.1292 12.9169L14.115 12.4171ZM9.885 12.4171L9.87081 12.9169C9.87554 12.9171 9.88027 12.9171 9.885 12.9171V12.4171ZM6.00022 15.5963C5.99203 15.8723 6.20915 16.1027 6.48517 16.1109C6.76119 16.1191 6.99159 15.902 6.99978 15.626L6.5 15.6111L6.00022 15.5963ZM6.5 15.7561L6.00022 15.771C6.0623 17.8629 7.80712 19.5093 9.89919 19.4499L9.885 18.9501L9.87081 18.4503C8.3303 18.4941 7.04549 17.2817 6.99978 15.7413L6.5 15.7561ZM9.885 18.9501V19.4501H14.115V18.9501V18.4501H9.885V18.9501ZM14.115 18.9501L14.1008 19.4499C16.1929 19.5093 17.9377 17.8629 17.9998 15.771L17.5 15.7561L17.0002 15.7413C16.9545 17.2817 15.6697 18.4941 14.1292 18.4503L14.115 18.9501ZM17.5 15.6111L17.9998 15.5963C17.9377 13.5043 16.1929 11.8579 14.1008 11.9173L14.115 12.4171L14.1292 12.9169C15.6697 12.8732 16.9545 14.0855 17.0002 15.626L17.5 15.6111ZM14.115 12.4171V11.9171H9.885V12.4171V12.9171H14.115V12.4171ZM9.885 12.4171L9.89919 11.9173C7.80712 11.8579 6.0623 13.5043 6.00022 15.5963L6.5 15.6111L6.99978 15.626C7.04549 14.0855 8.3303 12.8732 9.87081 12.9169L9.885 12.4171Z" fill="#485467"/>
</svg>
